<svg width="80" height="80" viewBox="0 0 80 80" fill="none" xmlns="http://www.w3.org/2000/svg">
<g clip-path="url(#clip0_1043_12543)">
<path d="M78.7991 49.6763C73.4566 71.105 51.7516 84.145 30.3204 78.8025C8.89912 73.46 -4.14213 51.755 1.20162 30.3275C6.54162 8.89626 28.2454 -4.14624 49.6704 1.19626C71.1004 6.53876 84.1416 28.2463 78.7991 49.6763Z" fill="url(#paint0_linear_1043_12543)"/>
<path d="M57.6369 34.3013C58.4319 28.9788 54.3794 26.1175 48.8381 24.2088L50.6356 16.9988L46.2456 15.905L44.4956 22.925C43.3431 22.6375 42.1581 22.3663 40.9806 22.0975L42.7431 15.0312L38.3569 13.9375L36.5581 21.145C35.6031 20.9275 34.6656 20.7125 33.7556 20.4863L33.7606 20.4638L27.7081 18.9525L26.5406 23.64C26.5406 23.64 29.7969 24.3862 29.7281 24.4325C31.5056 24.8763 31.8281 26.0525 31.7731 26.985L29.7256 35.1988C29.8481 35.23 30.0069 35.275 30.1819 35.345L29.7194 35.23L26.8481 46.7363C26.6306 47.2762 26.0794 48.0863 24.8369 47.7788C24.8806 47.8425 21.6469 46.9825 21.6469 46.9825L19.4681 52.0075L25.1806 53.4312C26.2431 53.6975 27.2844 53.9762 28.3081 54.2387L26.4919 61.5325L30.8756 62.6263L32.6756 55.4113C33.8719 55.7363 35.0344 56.0362 36.1719 56.3187L34.3794 63.5L38.7681 64.5938L40.5844 57.315C48.0681 58.7313 53.6969 58.16 56.0631 51.3925C57.9719 45.9425 55.9694 42.7987 52.0319 40.7475C54.8994 40.0837 57.0606 38.1975 57.6369 34.3013ZM47.6081 48.3625C46.2506 53.8125 37.0756 50.8675 34.0994 50.1275L36.5094 40.4663C39.4844 41.2088 49.0219 42.6787 47.6081 48.3625ZM48.9644 34.2225C47.7269 39.18 40.0894 36.6612 37.6106 36.0437L39.7956 27.2813C42.2744 27.8988 50.2544 29.0513 48.9644 34.2225Z" fill="white"/>
</g>
<defs>
<linearGradient id="paint0_linear_1043_12543" x1="39.9995" y1="-0.000732422" x2="39.9995" y2="79.9997" gradientUnits="userSpaceOnUse">
<stop stop-color="#FFDD00"/>
<stop offset="1" stop-color="#FFAD2A"/>
</linearGradient>
<clipPath id="clip0_1043_12543">
<rect width="80" height="80" fill="white"/>
</clipPath>
</defs>
</svg>
