<svg width="183" height="124" viewBox="0 0 183 124" fill="none" xmlns="http://www.w3.org/2000/svg">
<circle cx="2.46768" cy="2.46768" r="2.46768" fill="#0781FE"/>
<circle cx="2.46768" cy="32.0798" r="2.46768" fill="#0781FE"/>
<circle cx="2.46768" cy="61.6919" r="2.46768" fill="#0781FE"/>
<circle cx="2.46768" cy="91.304" r="2.46768" fill="#0781FE"/>
<circle cx="2.46768" cy="120.916" r="2.46768" fill="#0781FE"/>
<circle cx="120.916" cy="2.46768" r="2.46768" fill="#0781FE"/>
<circle cx="120.916" cy="32.0798" r="2.46768" fill="#0781FE"/>
<circle cx="120.916" cy="61.6919" r="2.46768" fill="#0781FE"/>
<circle cx="120.916" cy="91.304" r="2.46768" fill="#0781FE"/>
<circle cx="120.916" cy="120.916" r="2.46768" fill="#0781FE"/>
<circle cx="61.692" cy="2.46768" r="2.46768" fill="#0781FE"/>
<circle cx="61.692" cy="32.0798" r="2.46768" fill="#0781FE"/>
<circle cx="61.692" cy="61.6919" r="2.46768" fill="#0781FE"/>
<circle cx="61.692" cy="91.304" r="2.46768" fill="#0781FE"/>
<circle cx="61.692" cy="120.916" r="2.46768" fill="#0781FE"/>
<circle cx="180.141" cy="2.46768" r="2.46768" fill="#0781FE"/>
<circle cx="180.141" cy="32.0798" r="2.46768" fill="#0781FE"/>
<circle cx="180.141" cy="61.6919" r="2.46768" fill="#0781FE"/>
<circle cx="180.141" cy="91.304" r="2.46768" fill="#0781FE"/>
<circle cx="180.141" cy="120.916" r="2.46768" fill="#0781FE"/>
<circle cx="32.0799" cy="2.46768" r="2.46768" fill="#0781FE"/>
<circle cx="32.0799" cy="32.0798" r="2.46768" fill="#0781FE"/>
<circle cx="32.0799" cy="61.6919" r="2.46768" fill="#0781FE"/>
<circle cx="32.0799" cy="91.304" r="2.46768" fill="#0781FE"/>
<circle cx="32.0799" cy="120.916" r="2.46768" fill="#0781FE"/>
<circle cx="150.528" cy="2.46768" r="2.46768" fill="#0781FE"/>
<circle cx="150.528" cy="32.0798" r="2.46768" fill="#0781FE"/>
<circle cx="150.528" cy="61.6919" r="2.46768" fill="#0781FE"/>
<circle cx="150.528" cy="91.304" r="2.46768" fill="#0781FE"/>
<circle cx="150.528" cy="120.916" r="2.46768" fill="#0781FE"/>
<circle cx="91.3043" cy="2.46768" r="2.46768" fill="#0781FE"/>
<circle cx="91.3043" cy="32.0798" r="2.46768" fill="#0781FE"/>
<circle cx="91.3043" cy="61.6919" r="2.46768" fill="#0781FE"/>
<circle cx="91.3043" cy="91.304" r="2.46768" fill="#0781FE"/>
<circle cx="91.3043" cy="120.916" r="2.46768" fill="#0781FE"/>
</svg>
