<svg width="70" height="80" viewBox="0 0 70 80" fill="none" xmlns="http://www.w3.org/2000/svg">
<path d="M35.0727 0L0.890869 20.2182L5.83632 23.2727L35.0727 5.96364V0Z" fill="url(#paint0_linear_1285_2350)"/>
<path d="M0.890869 20.2183L5.83632 23.2728V56.7274L0.890869 59.7819V20.2183Z" fill="url(#paint1_linear_1285_2350)"/>
<path d="M34.9272 0L69.109 20.2182L64.1636 23.2727L34.9272 5.96364V0Z" fill="url(#paint2_linear_1285_2350)"/>
<path d="M35.0727 80L0.890869 59.7818L5.83632 56.7273L35.0727 74.0364V80Z" fill="url(#paint3_linear_1285_2350)"/>
<path d="M34.9272 80L69.109 59.7818L64.1636 56.7273L34.9272 74.0364V80Z" fill="url(#paint4_linear_1285_2350)"/>
<path d="M69.109 20.2183L64.1636 23.2728V56.7274L69.109 59.7819V20.2183Z" fill="url(#paint5_linear_1285_2350)"/>
<path d="M8.44554 24.8563L34.9272 9.56708L61.4089 24.8563V55.4347L34.9272 70.7239L8.44554 55.4347V24.8563Z" stroke="url(#paint6_linear_1285_2350)" stroke-width="1.45455"/>
<path d="M13.6909 25.0181L35.0727 37.3817V44.509L13.6909 32.2908V25.0181Z" fill="url(#paint7_linear_1285_2350)"/>
<path d="M56.3091 25.0181L34.9273 37.3817V44.509L56.3091 32.2908V25.0181Z" fill="url(#paint8_linear_1285_2350)"/>
<path d="M13.6909 35.491L35.0727 47.8546V54.9819L13.6909 42.7637V35.491Z" fill="url(#paint9_linear_1285_2350)"/>
<path d="M56.3091 35.491L34.9273 47.8546V54.9819L56.3091 42.7637V35.491Z" fill="url(#paint10_linear_1285_2350)"/>
<path d="M13.6909 45.6726L35.0727 58.0362V65.1635L13.6909 52.9453V45.6726Z" fill="url(#paint11_linear_1285_2350)"/>
<path d="M56.3091 45.6726L34.9273 58.0362V65.1635L56.3091 52.9453V45.6726Z" fill="url(#paint12_linear_1285_2350)"/>
<defs>
<linearGradient id="paint0_linear_1285_2350" x1="32.8909" y1="3.34546" x2="5.39996" y2="19.7818" gradientUnits="userSpaceOnUse">
<stop stop-color="#D4D8D8"/>
<stop offset="1" stop-color="#DEE0DD"/>
</linearGradient>
<linearGradient id="paint1_linear_1285_2350" x1="3.3636" y1="20.2183" x2="3.3636" y2="59.7819" gradientUnits="userSpaceOnUse">
<stop stop-color="#B0B3B6"/>
<stop offset="1" stop-color="#B0B4B4"/>
</linearGradient>
<linearGradient id="paint2_linear_1285_2350" x1="36.5272" y1="3.49091" x2="65.1817" y2="21.0909" gradientUnits="userSpaceOnUse">
<stop stop-color="#B2B3B5"/>
<stop offset="1" stop-color="#B3B5B8"/>
</linearGradient>
<linearGradient id="paint3_linear_1285_2350" x1="34.9272" y1="76.5091" x2="4.67269" y2="60.2182" gradientUnits="userSpaceOnUse">
<stop stop-color="#8E8D92"/>
<stop offset="1" stop-color="#898D90"/>
</linearGradient>
<linearGradient id="paint4_linear_1285_2350" x1="37.3999" y1="76.0727" x2="65.4726" y2="59.2" gradientUnits="userSpaceOnUse">
<stop stop-color="#585C5F"/>
<stop offset="1" stop-color="#535854"/>
</linearGradient>
<linearGradient id="paint5_linear_1285_2350" x1="66.6363" y1="20.2183" x2="66.6363" y2="59.7819" gradientUnits="userSpaceOnUse">
<stop stop-color="#8C8E90"/>
<stop offset="1" stop-color="#8D8E90"/>
</linearGradient>
<linearGradient id="paint6_linear_1285_2350" x1="23.1454" y1="16.1455" x2="49.6181" y2="62.2546" gradientUnits="userSpaceOnUse">
<stop stop-color="#D0D5DB"/>
<stop offset="1" stop-color="#6F7275"/>
</linearGradient>
<linearGradient id="paint7_linear_1285_2350" x1="14.7091" y1="29.2362" x2="34.6364" y2="41.0181" gradientUnits="userSpaceOnUse">
<stop stop-color="#B1B7B7"/>
<stop offset="1" stop-color="#B0B4B5"/>
</linearGradient>
<linearGradient id="paint8_linear_1285_2350" x1="55.2909" y1="29.2362" x2="35.3636" y2="41.0181" gradientUnits="userSpaceOnUse">
<stop stop-color="#8B8F90"/>
<stop offset="1" stop-color="#8D8E8C"/>
</linearGradient>
<linearGradient id="paint9_linear_1285_2350" x1="14.7091" y1="39.7091" x2="34.6364" y2="51.491" gradientUnits="userSpaceOnUse">
<stop stop-color="#B1B7B7"/>
<stop offset="1" stop-color="#B0B4B5"/>
</linearGradient>
<linearGradient id="paint10_linear_1285_2350" x1="55.2909" y1="39.7091" x2="35.3636" y2="51.491" gradientUnits="userSpaceOnUse">
<stop stop-color="#8B8F90"/>
<stop offset="1" stop-color="#8D8E8C"/>
</linearGradient>
<linearGradient id="paint11_linear_1285_2350" x1="14.7091" y1="49.8908" x2="34.6364" y2="61.6726" gradientUnits="userSpaceOnUse">
<stop stop-color="#B1B7B7"/>
<stop offset="1" stop-color="#B0B4B5"/>
</linearGradient>
<linearGradient id="paint12_linear_1285_2350" x1="55.2909" y1="49.8908" x2="35.3636" y2="61.6726" gradientUnits="userSpaceOnUse">
<stop stop-color="#8B8F90"/>
<stop offset="1" stop-color="#8D8E8C"/>
</linearGradient>
</defs>
</svg>
