<svg width="80" height="80" viewBox="0 0 80 80" fill="none" xmlns="http://www.w3.org/2000/svg">
<g clip-path="url(#clip0_1043_12560)">
<path d="M5.42357 64.8488H7.44916V78.0582H5.42357V64.8488ZM0 59.2588H16.5376V61.2787H0V59.2588ZM9.09162 64.8488H11.1172V78.0582H9.09162V64.8488ZM67.1712 78.077H69.2188V70.1194L67.1712 67.8489V78.077Z" fill="url(#paint0_linear_1043_12560)" fill-opacity="0.5"/>
<path d="M77.9492 59.2588V74.0058L63.4654 57.9561V78.077H65.513V63.3175L79.9999 79.3735V59.2588H77.9492ZM50.2127 59.2463C45.009 59.2463 40.7756 63.4678 40.7756 68.6569C40.7756 73.8461 45.009 78.0676 50.2127 78.0676C55.4164 78.0676 59.6498 73.8461 59.6498 68.6569C59.6498 63.4678 55.4164 59.2463 50.2127 59.2463ZM50.2127 76.0383C46.1301 76.0383 42.8075 72.7281 42.8075 68.6538C42.8075 64.5795 46.127 61.2694 50.2127 61.2694C54.2984 61.2694 57.6179 64.5795 57.6179 68.6538C57.6179 72.7281 54.2953 76.0383 50.2127 76.0383Z" fill="url(#paint1_linear_1043_12560)" fill-opacity="0.5"/>
<path d="M50.2128 67.3009C49.4654 67.3009 48.853 67.9116 48.853 68.6569C48.853 69.4022 49.4654 70.0129 50.2128 70.0129C50.9602 70.0129 51.5726 69.4022 51.5726 68.6569C51.5726 67.9116 50.9665 67.3009 50.2128 67.3009ZM37.2239 65.0273C37.2239 61.8455 34.6455 59.2588 31.4768 59.2588H20.6799V78.077H22.6961V61.3006H31.4768C33.5087 61.3006 35.1637 62.9729 35.1637 65.0242C35.1637 67.066 33.5307 68.7321 31.5176 68.754L24.3543 68.7509V78.0738H26.3704V70.7927H31.0937L34.9502 78.0738H37.2898L33.2637 70.5077C35.6034 69.7405 37.2239 67.5045 37.2239 65.0273Z" fill="url(#paint2_linear_1043_12560)" fill-opacity="0.5"/>
<path d="M53.4067 6.78406L17.1973 0.138672L36.2504 47.956L62.803 15.6968L53.4067 6.78406ZM52.8226 9.7153L58.3624 14.964L43.2097 17.701L52.8226 9.7153ZM39.9216 17.1499L23.9524 3.94364L50.0527 8.73196L39.9216 17.1499ZM38.7848 19.4892L36.1813 40.9536L22.1403 5.72243L38.7848 19.4892ZM41.1935 20.626L57.9698 17.5977L38.7282 40.9787L41.1935 20.626Z" fill="url(#paint3_linear_1043_12560)" fill-opacity="0.5"/>
</g>
<defs>
<linearGradient id="paint0_linear_1043_12560" x1="34.6094" y1="59.2588" x2="34.6094" y2="78.077" gradientUnits="userSpaceOnUse">
<stop/>
<stop offset="1" stop-color="#666666"/>
</linearGradient>
<linearGradient id="paint1_linear_1043_12560" x1="60.3878" y1="57.9561" x2="60.3878" y2="79.3735" gradientUnits="userSpaceOnUse">
<stop/>
<stop offset="1" stop-color="#666666"/>
</linearGradient>
<linearGradient id="paint2_linear_1043_12560" x1="36.1263" y1="59.2588" x2="36.1263" y2="78.077" gradientUnits="userSpaceOnUse">
<stop/>
<stop offset="1" stop-color="#666666"/>
</linearGradient>
<linearGradient id="paint3_linear_1043_12560" x1="40.0001" y1="0.138672" x2="40.0001" y2="47.956" gradientUnits="userSpaceOnUse">
<stop/>
<stop offset="1" stop-color="#666666"/>
</linearGradient>
<clipPath id="clip0_1043_12560">
<rect width="80" height="80" fill="white"/>
</clipPath>
</defs>
</svg>
