<svg width="80" height="80" viewBox="0 0 80 80" fill="none" xmlns="http://www.w3.org/2000/svg">
<g clip-path="url(#clip0_1044_12571)">
<path d="M40 80C62.1668 80 80 62.1668 80 40C80 17.8332 62.1668 0 40 0C17.8332 0 0 17.8332 0 40C0 62.1668 17.8332 80 40 80Z" fill="url(#paint0_linear_1044_12571)" fill-opacity="0.5"/>
<path d="M50.9999 46.3333C50.9999 40.5001 47.4999 38.5001 40.4999 37.6669C35.4999 37.0001 34.4999 35.6669 34.4999 33.3333C34.4999 30.9997 36.1667 29.5001 39.4999 29.5001C42.4999 29.5001 44.1667 30.5001 44.9999 33.0001C45.1667 33.5001 45.6667 33.8333 46.1667 33.8333H48.8331C49.4999 33.8333 49.9999 33.3333 49.9999 32.6669V32.5001C49.3331 28.8333 46.3331 26.0001 42.4999 25.6669V21.6669C42.4999 21.0001 42 20.5001 41.1667 20.3333H38.6667C37.9999 20.3333 37.4999 20.8333 37.3331 21.6669V25.5001C32.3331 26.1669 29.1667 29.5001 29.1667 33.6669C29.1667 39.1669 32.4999 41.3333 39.4999 42.1669C44.1667 43.0001 45.6667 44.0001 45.6667 46.6669C45.6667 49.3337 43.3331 51.1669 40.1667 51.1669C35.8331 51.1669 34.3331 49.3333 33.8331 46.8333C33.6667 46.1669 33.1667 45.8333 32.6667 45.8333H29.8331C29.1667 45.8333 28.6667 46.3333 28.6667 47.0001V47.1669C29.3331 51.3333 31.9999 54.3333 37.4999 55.1669V59.1669C37.4999 59.8333 37.9999 60.3333 38.8331 60.5001H41.3331C41.9999 60.5001 42.5 60.0001 42.6667 59.1669V55.1669C47.6667 54.3333 50.9999 50.8333 50.9999 46.3333Z" fill="white"/>
<path d="M31.5 63.8331C18.5 59.1667 11.8332 44.6667 16.6668 31.8331C19.1668 24.8331 24.6668 19.4999 31.5 16.9999C32.1668 16.6667 32.5 16.1667 32.5 15.3331V12.9999C32.5 12.3331 32.1668 11.8331 31.5 11.6667C31.3332 11.6667 31 11.6667 30.8332 11.8331C15 16.8331 6.33315 33.6667 11.3332 49.4999C14.3332 58.8331 21.5 65.9999 30.8332 68.9999C31.5 69.3331 32.1668 68.9999 32.3332 68.3331C32.5 68.1667 32.5 67.9999 32.5 67.6667V65.3331C32.5 64.8331 32 64.1667 31.5 63.8331ZM49.1668 11.8331C48.5 11.4999 47.8332 11.8331 47.6668 12.4999C47.5 12.6667 47.5 12.8331 47.5 13.1667V15.4999C47.5 16.1667 48 16.8331 48.5 17.1667C61.5 21.8331 68.1668 36.3331 63.3332 49.1667C60.8332 56.1667 55.3332 61.4999 48.5 63.9999C47.8332 64.3331 47.5 64.8331 47.5 65.6667V67.9999C47.5 68.6667 47.8332 69.1667 48.5 69.3331C48.6668 69.3331 49 69.3331 49.1668 69.1667C65 64.1667 73.6668 47.3331 68.6668 31.4999C65.6668 21.9999 58.3332 14.8331 49.1668 11.8331Z" fill="white"/>
</g>
<defs>
<linearGradient id="paint0_linear_1044_12571" x1="40" y1="0" x2="40" y2="80" gradientUnits="userSpaceOnUse">
<stop/>
<stop offset="1" stop-color="#666666"/>
</linearGradient>
<clipPath id="clip0_1044_12571">
<rect width="80" height="80" fill="white"/>
</clipPath>
</defs>
</svg>
