<svg width="80" height="80" viewBox="0 0 80 80" fill="none" xmlns="http://www.w3.org/2000/svg">
<g clip-path="url(#clip0_1042_12517)">
<path d="M24.472 33.615L40.0095 18.0839L55.5533 33.6277L64.5889 24.5857L40.0095 0L15.4301 24.5794L24.472 33.615Z" fill="url(#paint0_linear_1042_12517)" fill-opacity="0.5"/>
<path d="M0 40.0031L9.03562 30.9612L18.0776 40.0031L9.03562 49.0387L0 40.0031Z" fill="url(#paint1_linear_1042_12517)" fill-opacity="0.5"/>
<path d="M24.472 46.385L40.0095 61.9225L55.5533 46.3787L64.5952 55.408L40.0158 79.9937L15.4301 55.4269L24.472 46.385Z" fill="url(#paint2_linear_1042_12517)" fill-opacity="0.5"/>
<path d="M61.9225 40.0031L70.9581 30.9612L80 39.9968L70.9581 49.0451L61.9225 40.0031Z" fill="url(#paint3_linear_1042_12517)" fill-opacity="0.5"/>
<path d="M49.1778 39.9969L40.0095 30.8223L33.2296 37.6021L32.4461 38.3793L30.8412 39.9843L40.0095 49.1463L49.1778 40.0032V39.9969Z" fill="url(#paint4_linear_1042_12517)" fill-opacity="0.5"/>
</g>
<defs>
<linearGradient id="paint0_linear_1042_12517" x1="25.9133" y1="5.97648" x2="45.0451" y2="35.189" gradientUnits="userSpaceOnUse">
<stop/>
<stop offset="1" stop-color="#666666"/>
</linearGradient>
<linearGradient id="paint1_linear_1042_12517" x1="3.8551" y1="34.174" x2="15.0644" y2="45.8821" gradientUnits="userSpaceOnUse">
<stop/>
<stop offset="1" stop-color="#666666"/>
</linearGradient>
<linearGradient id="paint2_linear_1042_12517" x1="25.9147" y1="52.3529" x2="45.0354" y2="81.5633" gradientUnits="userSpaceOnUse">
<stop/>
<stop offset="1" stop-color="#666666"/>
</linearGradient>
<linearGradient id="paint3_linear_1042_12517" x1="65.7776" y1="34.1751" x2="76.9909" y2="45.8834" gradientUnits="userSpaceOnUse">
<stop/>
<stop offset="1" stop-color="#666666"/>
</linearGradient>
<linearGradient id="paint4_linear_1042_12517" x1="34.7515" y1="34.0789" x2="46.1133" y2="45.9544" gradientUnits="userSpaceOnUse">
<stop/>
<stop offset="1" stop-color="#666666"/>
</linearGradient>
<clipPath id="clip0_1042_12517">
<rect width="80" height="80" fill="white"/>
</clipPath>
</defs>
</svg>
