<svg width="70" height="80" viewBox="0 0 70 80" fill="none" xmlns="http://www.w3.org/2000/svg">
<path d="M35.0727 47.1271V39.2725L13.6909 26.7634V35.0543L35.0727 47.1271Z" fill="url(#paint0_linear_1285_2320)"/>
<path d="M34.9273 47.1271V39.2725L56.3091 26.7634V35.0543L34.9273 47.1271Z" fill="url(#paint1_linear_1285_2320)"/>
<path d="M35.0727 59.6363V51.7818L13.6909 39.2727V47.5636L35.0727 59.6363Z" fill="url(#paint2_linear_1285_2320)"/>
<path d="M34.9273 59.6363V51.7818L56.3091 39.2727V47.5636L34.9273 59.6363Z" fill="url(#paint3_linear_1285_2320)"/>
<path d="M35.0727 0L0.890869 20.2182L5.83632 23.2727L35.0727 5.96364V0Z" fill="url(#paint4_linear_1285_2320)"/>
<path d="M0.890869 20.218L5.83632 23.2726V56.7271L0.890869 59.7817V20.218Z" fill="url(#paint5_linear_1285_2320)"/>
<path d="M34.9272 0L69.109 20.2182L64.1636 23.2727L34.9272 5.96364V0Z" fill="url(#paint6_linear_1285_2320)"/>
<path d="M35.0727 79.9998L0.890869 59.7816L5.83632 56.727L35.0727 74.0361V79.9998Z" fill="url(#paint7_linear_1285_2320)"/>
<path d="M34.9272 79.9998L69.109 59.7816L64.1636 56.727L34.9272 74.0361V79.9998Z" fill="url(#paint8_linear_1285_2320)"/>
<path d="M69.109 20.218L64.1636 23.2726V56.7271L69.109 59.7817V20.218Z" fill="url(#paint9_linear_1285_2320)"/>
<path d="M8.57115 24.9286L34.9272 9.71187L61.2833 24.9286V55.3619L34.9272 70.5786L8.57115 55.3619V24.9286Z" stroke="url(#paint10_linear_1285_2320)" stroke-width="1.70576"/>
<defs>
<linearGradient id="paint0_linear_1285_2320" x1="15.1455" y1="32.5816" x2="33.7636" y2="42.7634" gradientUnits="userSpaceOnUse">
<stop stop-color="#AFB3B5"/>
<stop offset="1" stop-color="#B0B4B5"/>
</linearGradient>
<linearGradient id="paint1_linear_1285_2320" x1="54.8545" y1="32.5816" x2="36.2364" y2="42.7634" gradientUnits="userSpaceOnUse">
<stop stop-color="#B0B4B5"/>
<stop offset="1" stop-color="#909599"/>
</linearGradient>
<linearGradient id="paint2_linear_1285_2320" x1="15.1455" y1="45.0909" x2="33.7636" y2="55.2727" gradientUnits="userSpaceOnUse">
<stop stop-color="#AFB3B5"/>
<stop offset="1" stop-color="#B0B4B5"/>
</linearGradient>
<linearGradient id="paint3_linear_1285_2320" x1="54.8545" y1="45.0909" x2="36.2364" y2="55.2727" gradientUnits="userSpaceOnUse">
<stop stop-color="#B0B4B5"/>
<stop offset="1" stop-color="#909599"/>
</linearGradient>
<linearGradient id="paint4_linear_1285_2320" x1="32.8909" y1="3.34546" x2="5.39996" y2="19.7818" gradientUnits="userSpaceOnUse">
<stop stop-color="#D4D8D8"/>
<stop offset="1" stop-color="#DEE0DD"/>
</linearGradient>
<linearGradient id="paint5_linear_1285_2320" x1="3.3636" y1="20.218" x2="3.3636" y2="59.7817" gradientUnits="userSpaceOnUse">
<stop stop-color="#B0B3B6"/>
<stop offset="1" stop-color="#B0B4B4"/>
</linearGradient>
<linearGradient id="paint6_linear_1285_2320" x1="36.5272" y1="3.49091" x2="65.1817" y2="21.0909" gradientUnits="userSpaceOnUse">
<stop stop-color="#B2B3B5"/>
<stop offset="1" stop-color="#B3B5B8"/>
</linearGradient>
<linearGradient id="paint7_linear_1285_2320" x1="34.9272" y1="76.5088" x2="4.67269" y2="60.2179" gradientUnits="userSpaceOnUse">
<stop stop-color="#8E8D92"/>
<stop offset="1" stop-color="#898D90"/>
</linearGradient>
<linearGradient id="paint8_linear_1285_2320" x1="37.3999" y1="76.0725" x2="65.4726" y2="59.1998" gradientUnits="userSpaceOnUse">
<stop stop-color="#585C5F"/>
<stop offset="1" stop-color="#535854"/>
</linearGradient>
<linearGradient id="paint9_linear_1285_2320" x1="66.6363" y1="20.218" x2="66.6363" y2="59.7817" gradientUnits="userSpaceOnUse">
<stop stop-color="#8C8E90"/>
<stop offset="1" stop-color="#8D8E90"/>
</linearGradient>
<linearGradient id="paint10_linear_1285_2320" x1="23.1454" y1="16.1452" x2="49.6181" y2="62.2543" gradientUnits="userSpaceOnUse">
<stop stop-color="#D0D5DB"/>
<stop offset="1" stop-color="#6F7275"/>
</linearGradient>
</defs>
</svg>
